<?xml version="1.0" encoding="UTF-8" standalone="no"?>
<!-- Generator: Adobe Illustrator 16.0.0, SVG Export Plug-In . SVG Version: 6.00 Build 0)  -->

<svg
   xmlns:dc="http://purl.org/dc/elements/1.1/"
   xmlns:cc="http://creativecommons.org/ns#"
   xmlns:rdf="http://www.w3.org/1999/02/22-rdf-syntax-ns#"
   xmlns:svg="http://www.w3.org/2000/svg"
   xmlns="http://www.w3.org/2000/svg"
   xmlns:sodipodi="http://sodipodi.sourceforge.net/DTD/sodipodi-0.dtd"
   xmlns:inkscape="http://www.inkscape.org/namespaces/inkscape"
   version="1.1"
   id="Layer_1"
   x="0px"
   y="0px"
   width="22px"
   height="22px"
   viewBox="0 0 22 22"
   enable-background="new 0 0 22 22"
   xml:space="preserve"
   inkscape:version="0.91 r"
   sodipodi:docname="indicator-icon.svg"><metadata
     id="metadata39"><rdf:RDF><cc:Work
         rdf:about=""><dc:format>image/svg+xml</dc:format><dc:type
           rdf:resource="http://purl.org/dc/dcmitype/StillImage" /></cc:Work></rdf:RDF></metadata><defs
     id="defs37" /><sodipodi:namedview
     pagecolor="#ffffff"
     bordercolor="#666666"
     borderopacity="1"
     objecttolerance="10"
     gridtolerance="10"
     guidetolerance="10"
     inkscape:pageopacity="0"
     inkscape:pageshadow="2"
     inkscape:window-width="1301"
     inkscape:window-height="744"
     id="namedview35"
     showgrid="true"
     inkscape:zoom="32"
     inkscape:cx="8.6785381"
     inkscape:cy="18.349676"
     inkscape:window-x="65"
     inkscape:window-y="24"
     inkscape:window-maximized="1"
     inkscape:current-layer="Layer_1"
     inkscape:snap-global="false"
     showguides="false"><inkscape:grid
       type="xygrid"
       id="grid3769" /></sodipodi:namedview><g
     opacity="0.3"
     id="g3"><g
       id="g5"><g
         id="MPATH2_1_"><path
           d="M14.932,12.021V4.097l4.723-2.016v10.267c0,1.236-4.723,1.382-4.723-0.329V12.021z"
           id="path8" /></g></g><g
       id="g10"><g
         id="MPATH3_1_"><path
           d="m 10.956,20.966 c -1.477,0 -2.757,-0.208 -3.831,-0.622 -1.076,-0.419 -1.379,-1.199 -2.051,-1.915 -0.36,-0.382 2.995,0.224 5.23,-0.269 2.146,-0.446 3.181,-1.928 3.538,-2.281 0.727,-0.712 1.086,-1.925 1.086,-3.634 l 0,-7.319 c 1.945,0.76 4.461243,3.3871456 4.778243,6.202146 l -0.03315,1.39666 C 19.643654,13.765457 19.48,14.944 19.136,15.977 c -0.347,1.035 -0.874,1.921 -1.582,2.658 -0.711,0.738 -1.61,1.311 -2.707,1.717 -1.096,0.406 -2.393,0.607 -3.895,0.607 z"
           id="path13"
           inkscape:connector-curvature="0"
           sodipodi:nodetypes="cccccsccsccccc" /></g></g><g
       id="g15"><g
         id="MPATH4_1_"><path
           d="M 13.657,16.326 C 13.212,17.178 11.155,19.724 7.22,20.13 L 6.652,20.144 C 5.787,19.747 5.056,19.237 4.463,18.608 3.764,17.871 3.248,16.989 2.914,15.965 2.579,14.944 2.411,13.813 2.411,12.575 l 0,-2.878 4.629,-2.166 0.00125,4.595906 c 0,0.857 0.18975,1.707094 0.38375,2.306094 0.193,0.602 0.459,1.087 0.797,1.467 0.337,0.378 0.745,0.647 1.224,0.811 0.478,0.161 1.004,0.243 1.574,0.243 1.16,0 2.103,-0.358 2.829,-1.072 l -0.188,0.445 -0.004,0 z"
           id="path18"
           inkscape:connector-curvature="0"
           sodipodi:nodetypes="cccccsccccccscccc" /></g></g></g><path
     style="fill:#dfdbd2;fill-opacity:1;stroke:#dfdbd2;stroke-width:0;stroke-linecap:butt;stroke-linejoin:miter;stroke-miterlimit:4;stroke-dasharray:none;stroke-opacity:1"
     d="m 2.3400441,8.7507365 c 0.046125,5.0800715 0.1027437,7.0429645 2.4759826,9.3543355 1.7312557,1.686123 4.7791996,2.058085 6.5875683,1.983343 4.149342,-0.171497 8.33314,-2.085933 8.332721,-8.679553 -6.44e-4,-10.1440063 0.0057,-10.1726331 0.0057,-10.1726331 l -4.84488,1.9115852 0.0097,9.0072879 c 0,0 -0.297183,3.015587 -2.304057,3.588542 C 11.619857,16.024276 9.6832512,16.370168 8.5087153,15.327259 7.2559229,14.214864 7.0852658,12.627771 7.0997457,11.6144 7.1365836,9.0363156 7.0860935,6.641401 7.0860935,6.641401 Z"
     id="path3026"
     inkscape:connector-curvature="0"
     sodipodi:nodetypes="cssscccssscc" /></svg>