<?xml version="1.0" encoding="UTF-8" standalone="no"?>
<!-- Generator: Adobe Illustrator 16.0.0, SVG Export Plug-In . SVG Version: 6.00 Build 0)  -->

<svg
   xmlns:dc="http://purl.org/dc/elements/1.1/"
   xmlns:cc="http://creativecommons.org/ns#"
   xmlns:rdf="http://www.w3.org/1999/02/22-rdf-syntax-ns#"
   xmlns:svg="http://www.w3.org/2000/svg"
   xmlns="http://www.w3.org/2000/svg"
   xmlns:sodipodi="http://sodipodi.sourceforge.net/DTD/sodipodi-0.dtd"
   xmlns:inkscape="http://www.inkscape.org/namespaces/inkscape"
   version="1.1"
   id="Layer_1"
   x="0px"
   y="0px"
   width="22px"
   height="22px"
   viewBox="0 0 22 22"
   enable-background="new 0 0 22 22"
   xml:space="preserve"
   inkscape:version="0.48.4 r9939"
   sodipodi:docname="indicator-icon.svg"><metadata
     id="metadata39"><rdf:RDF><cc:Work
         rdf:about=""><dc:format>image/svg+xml</dc:format><dc:type
           rdf:resource="http://purl.org/dc/dcmitype/StillImage" /></cc:Work></rdf:RDF></metadata><defs
     id="defs37" /><sodipodi:namedview
     pagecolor="#ffffff"
     bordercolor="#666666"
     borderopacity="1"
     objecttolerance="10"
     gridtolerance="10"
     guidetolerance="10"
     inkscape:pageopacity="0"
     inkscape:pageshadow="2"
     inkscape:window-width="1855"
     inkscape:window-height="1056"
     id="namedview35"
     showgrid="true"
     inkscape:zoom="42.909091"
     inkscape:cx="12.423578"
     inkscape:cy="11.044793"
     inkscape:window-x="65"
     inkscape:window-y="24"
     inkscape:window-maximized="1"
     inkscape:current-layer="Layer_1"
     inkscape:snap-global="false"><inkscape:grid
       type="xygrid"
       id="grid3769" /></sodipodi:namedview><g
     opacity="0.3"
     id="g3"><g
       id="g5"><g
         id="MPATH2_1_"><path
           d="M14.932,12.021V4.097l4.723-2.016v10.267c0,1.236-4.723,1.382-4.723-0.329V12.021z"
           id="path8" /></g></g><g
       id="g10"><g
         id="MPATH3_1_"><path
           d="M10.956,20.966c-1.477,0-2.757-0.208-3.831-0.622c-1.076-0.419-1.379-1.199-2.051-1.915     c-0.36-0.382,2.995,0.224,5.23-0.269c2.146-0.446,3.181-1.928,3.538-2.281c0.727-0.712,1.086-1.925,1.086-3.634V4.926     c1.945,0.76,4.406,3.354,4.723,6.169v1.474c0,1.241-0.171,2.375-0.515,3.408c-0.347,1.035-0.874,1.921-1.582,2.658     c-0.711,0.738-1.61,1.311-2.707,1.717c-1.096,0.406-2.393,0.607-3.895,0.607L10.956,20.966z"
           id="path13" /></g></g><g
       id="g15"><g
         id="MPATH4_1_"><path
           d="M13.657,16.326c-0.445,0.852-2.502,3.398-6.437,3.804l-0.568,0.014c-0.865-0.397-1.596-0.907-2.189-1.536     c-0.699-0.737-1.215-1.619-1.549-2.643c-0.335-1.021-0.503-2.152-0.503-3.39V9.697L7.04,7.531l0.095,4.717     c0,0.857,0.096,1.586,0.29,2.185c0.193,0.602,0.459,1.087,0.797,1.467c0.337,0.378,0.745,0.647,1.224,0.811     c0.478,0.161,1.004,0.243,1.574,0.243c1.16,0,2.103-0.358,2.829-1.072l-0.188,0.445H13.657z"
           id="path18" /></g></g></g><path
     style="fill:#dfdbd2;fill-opacity:1;stroke:#dfdbd2;stroke-width:0;stroke-linecap:butt;stroke-linejoin:miter;stroke-miterlimit:4;stroke-opacity:1;stroke-dasharray:none"
     d="m 2.3400441,8.7507365 c 0.046125,5.0800715 0.1027437,7.0429645 2.4759826,9.3543355 1.7312557,1.686123 4.7791996,2.058085 6.5875683,1.983343 4.149342,-0.171497 8.210632,-2.173597 8.27255,-8.766926 0.06346,-6.7574532 0.06591,-10.2170936 0.06591,-10.2170936 l -4.84488,2.0434187 0.0097,9.0072879 c 0,0 -0.297183,3.015587 -2.304057,3.588542 C 11.619857,16.024276 9.6832512,16.370168 8.5087153,15.327259 7.2559229,14.214864 7.0852658,12.627771 7.0997457,11.6144 7.1365836,9.0363156 7.0860935,6.641401 7.0860935,6.641401 z"
     id="path3026"
     inkscape:connector-curvature="0"
     sodipodi:nodetypes="cssscccssscc" /></svg>