<?xml version="1.0" encoding="utf-8"?>
<!-- Generator: Adobe Illustrator 16.0.0, SVG Export Plug-In . SVG Version: 6.00 Build 0)  -->
<!DOCTYPE svg PUBLIC "-//W3C//DTD SVG 1.1//EN" "http://www.w3.org/Graphics/SVG/1.1/DTD/svg11.dtd">
<svg version="1.1" id="Layer_1" xmlns="http://www.w3.org/2000/svg" xmlns:xlink="http://www.w3.org/1999/xlink" x="0px" y="0px"
	 width="22px" height="22px" viewBox="0 0 22 22" enable-background="new 0 0 22 22" xml:space="preserve">
<g opacity="0.3">
	<g>
		<g id="MPATH2_1_">
			<path d="M14.932,12.021V4.097l4.723-2.016v10.267c0,1.236-4.723,1.382-4.723-0.329V12.021z"/>
		</g>
	</g>
	<g>
		<g id="MPATH3_1_">
			<path d="M10.956,20.966c-1.477,0-2.757-0.208-3.831-0.622c-1.076-0.419-1.379-1.199-2.051-1.915
				c-0.36-0.382,2.995,0.224,5.23-0.269c2.146-0.446,3.181-1.928,3.538-2.281c0.727-0.712,1.086-1.925,1.086-3.634V4.926
				c1.945,0.76,4.406,3.354,4.723,6.169v1.474c0,1.241-0.171,2.375-0.515,3.408c-0.347,1.035-0.874,1.921-1.582,2.658
				c-0.711,0.738-1.61,1.311-2.707,1.717c-1.096,0.406-2.393,0.607-3.895,0.607L10.956,20.966z"/>
		</g>
	</g>
	<g>
		<g id="MPATH4_1_">
			<path d="M13.657,16.326c-0.445,0.852-2.502,3.398-6.437,3.804l-0.568,0.014c-0.865-0.397-1.596-0.907-2.189-1.536
				c-0.699-0.737-1.215-1.619-1.549-2.643c-0.335-1.021-0.503-2.152-0.503-3.39V9.697L7.04,7.531l0.095,4.717
				c0,0.857,0.096,1.586,0.29,2.185c0.193,0.602,0.459,1.087,0.797,1.467c0.337,0.378,0.745,0.647,1.224,0.811
				c0.478,0.161,1.004,0.243,1.574,0.243c1.16,0,2.103-0.358,2.829-1.072l-0.188,0.445H13.657z"/>
		</g>
	</g>
</g>
<g>
	<g id="MPATH2">
		<path fill="#AEABA3" d="M14.906,11.099V3.146l4.74-2.023v10.304c0,1.242-4.74,1.386-4.74-0.33V11.099z"/>
	</g>
</g>
<g>
	<g id="MPATH3">
		<path fill="#DFDBD2" d="M10.917,20.075c-1.482,0-2.767-0.209-3.845-0.625c-1.079-0.421-1.384-1.203-2.058-1.923
			c-0.361-0.383,3.006,0.226,5.249-0.27c2.154-0.447,3.192-1.934,3.551-2.289c0.728-0.715,1.088-1.931,1.088-3.646V3.979
			c1.953,0.762,4.423,3.365,4.74,6.191v1.48c0,1.244-0.172,2.382-0.517,3.418c-0.347,1.039-0.876,1.929-1.588,2.668
			c-0.713,0.742-1.616,1.316-2.718,1.724c-1.098,0.408-2.399,0.608-3.907,0.608L10.917,20.075z"/>
	</g>
</g>
<g>
	<g id="MPATH4">
		<path fill="#828079" d="M13.629,15.419c-0.447,0.854-2.512,3.41-6.46,3.815l-0.57,0.015c-0.868-0.397-1.602-0.91-2.197-1.541
			c-0.701-0.74-1.219-1.625-1.554-2.651c-0.337-1.027-0.505-2.162-0.505-3.404V8.766l4.74-2.107v4.667
			c0,0.859,0.096,1.591,0.291,2.191c0.193,0.604,0.461,1.092,0.799,1.473c0.339,0.379,0.748,0.65,1.228,0.813
			s1.008,0.244,1.58,0.244c1.164,0,2.11-0.359,2.837-1.076l-0.188,0.449L13.629,15.419L13.629,15.419z"/>
	</g>
</g>
</svg>
