<?xml version="1.0" ?><!DOCTYPE svg  PUBLIC '-//W3C//DTD SVG 1.1//EN'  'http://www.w3.org/Graphics/SVG/1.1/DTD/svg11.dtd'><svg enable-background="new 0 0 512 512" height="512px" id="Layer_1" version="1.1" viewBox="0 0 512 512" width="512px" xml:space="preserve" xmlns="http://www.w3.org/2000/svg" xmlns:xlink="http://www.w3.org/1999/xlink"><g id="stackoverflow"><path d="M254.5,16.5c-131.996,0-239,107.004-239,239s107.004,239,239,239s239-107.004,239-239   S386.496,16.5,254.5,16.5z M412.892,413.892C370.584,456.2,314.333,479.5,254.5,479.5c-59.833,0-116.084-23.3-158.392-65.608   C53.8,371.584,30.5,315.333,30.5,255.5c0-59.833,23.3-116.084,65.608-158.392C138.416,54.8,194.667,31.5,254.5,31.5   c59.833,0,116.084,23.3,158.392,65.608C455.2,139.416,478.5,195.667,478.5,255.5C478.5,315.333,455.2,371.584,412.892,413.892z" fill="#F37A20"/><rect fill="#F37A20" height="21.336" width="99.907" x="188.833" y="327.741"/><rect fill="#F37A20" height="21.338" transform="matrix(0.171 0.9853 -0.9853 0.171 457.6805 -182.3264)" width="99.901" x="287.243" y="170.158"/><polygon fill="#F37A20" points="289.189,321.6 189.709,312.44 191.668,291.191 291.147,300.357  "/><rect fill="#F37A20" height="21.338" transform="matrix(0.9657 0.2596 -0.2596 0.9657 78.5079 -54.7914)" width="99.905" x="196.75" y="259.179"/><polygon fill="#F37A20" points="299.464,266.484 213.408,215.727 224.254,197.353 310.304,248.107  "/><polygon fill="#F37A20" points="313.776,245.178 257.485,162.641 275.116,150.619 331.403,233.161  "/><polygon fill="#F37A20" points="305.5,278.5 305.5,366.5 174.5,366.5 174.5,278.5 157.5,278.5 157.5,382.5 157.776,382.5    162.758,382.5 322.5,382.5 322.5,382.836 322.5,377.852 322.5,278.5  "/></g></svg>